<?xml version="1.0" standalone="no"?><svg xmlns="http://www.w3.org/2000/svg" viewBox="0 0 1440 320" ><path fill="#0099ff" fill-opacity="1" d="M0,32L34.3,74.7C68.6,117,137,203,206,245.3C274.3,288,343,288,411,250.7C480,213,549,139,617,106.7C685.7,75,754,85,823,117.3C891.4,149,960,203,1029,229.3C1097.1,256,1166,256,1234,250.7C1302.9,245,1371,235,1406,229.3L1440,224L1440,320L1405.7,320C1371.4,320,1303,320,1234,320C1165.7,320,1097,320,1029,320C960,320,891,320,823,320C754.3,320,686,320,617,320C548.6,320,480,320,411,320C342.9,320,274,320,206,320C137.1,320,69,320,34,320L0,320Z"></path></svg>